# xmcd
#
# Track frame offsets: 
#        150
#        29707
#        50498
#        84447
#        105520
#        132447
#        165221
#        189221
#        202685
#        236636
#        265903
#        301607
#
# Disc length: 4488 seconds
#
# Revision: 2
# Processed by: cddbd v1.5.2PL0 Copyright (c) Steve Scherf et al.
# Submitted via: ExactAudioCopy v1.0b1
#
DISCID=8d11860c
DTITLE=Martinez - A Chemical Imbalance
DYEAR=2007
DGENRE=Techno, Minimal
TTITLE0=Haunted By Your Scream
TTITLE1=Isolation
TTITLE2=Tuna Belly
TTITLE3=Razor-Blades
TTITLE4=Lowdown
TTITLE5=Sinus Wave
TTITLE6=A Chemical Imbalance
TTITLE7=The Turtle-March
TTITLE8=Borrmaskin
TTITLE9=Land-Crab
TTITLE10=Square-Form
TTITLE11=La Macchina
EXTD=Label: re:connected\nCatalog: RE001-2\nRelease: 2007-11\nhttp://w
EXTD=ww.discogs.com/release/1112049\nNotes:\nTrack 1: "Hau(n)ted By Yo
EXTD=ur Scream" miss spelled on cover. \nTrack 10: Artist forgot track
EXTD=10 "Land Crab" on the cover track list.\n\n\n
EXTT0=
EXTT1=
EXTT2=
EXTT3=
EXTT4=
EXTT5=
EXTT6=
EXTT7=
EXTT8=
EXTT9=
EXTT10=
EXTT11=
PLAYORDER=
